<?xml version="1.0" encoding="utf-8"?>
<!-- Generator: Adobe Illustrator 26.2.1, SVG Export Plug-In . SVG Version: 6.00 Build 0)  -->
<svg version="1.1"
	 id="svg2398" xmlns:cc="http://creativecommons.org/ns#" xmlns:dc="http://purl.org/dc/elements/1.1/" xmlns:inkscape="http://www.inkscape.org/namespaces/inkscape" xmlns:rdf="http://www.w3.org/1999/02/22-rdf-syntax-ns#" xmlns:sodipodi="http://sodipodi.sourceforge.net/DTD/sodipodi-0.dtd" xmlns:svg="http://www.w3.org/2000/svg"
	 xmlns="http://www.w3.org/2000/svg" xmlns:xlink="http://www.w3.org/1999/xlink" x="0px" y="0px" viewBox="0 0 512 512"
	 style="enable-background:new 0 0 512 512;" xml:space="preserve">
<style type="text/css">
	.st0{fill:#6495ED;}
	.st1{fill:#FFFFFF;}
	.st2{fill:#003F87;}
</style>
<defs>
	
		<inkscape:perspective  id="perspective2406" inkscape:persp3d-origin="372.04724 : 350.78739 : 1" inkscape:vp_x="0 : 526.18109 : 1" inkscape:vp_y="0 : 1000 : 0" inkscape:vp_z="744.09448 : 526.18109 : 1" sodipodi:type="inkscape:persp3d">
		</inkscape:perspective>
</defs>
<sodipodi:namedview  bordercolor="#666666" borderopacity="1.0" gridtolerance="10000" guidetolerance="10" id="base" inkscape:current-layer="layer1" inkscape:cx="325" inkscape:cy="520" inkscape:document-units="px" inkscape:pageopacity="0.0" inkscape:pageshadow="2" inkscape:window-height="719" inkscape:window-width="645" inkscape:window-x="0" inkscape:window-y="1024" inkscape:zoom="0.35" objecttolerance="10" pagecolor="#ffffff" showgrid="false">
	</sodipodi:namedview>
<g id="layer1" inkscape:groupmode="layer" inkscape:label="Layer 1">
	<g id="g20952" transform="matrix(4,0,0,4,-3437.1242,-2082.4701)">
		
			<path id="path16477" inkscape:transform-center-x="114.23079" inkscape:transform-center-y="8.0497181" sodipodi:nodetypes="czsssc" class="st0" d="
			M944.8,570.8c39.6,36.8,41.2,73.2,41.3,73.5c0.1,0.2-35.9,0.6-75.5-36.2C871,571.2,863,525.7,864,524.8
			c0.6-0.5,14.7,9.2,40.9,20.9C922.1,553.5,929.1,556.2,944.8,570.8z"/>
		<path id="path17365" sodipodi:nodetypes="csssc" class="st1" d="M943.7,568.1c18.1,14.8,28.2,55.7,28.8,59.7
			c0.7,5.2-39.2,1.2-57.4-13.6c-18.1-14.8-28.6-42-18.9-56.3C905.8,543.6,925.5,553.3,943.7,568.1z"/>
		<path id="path11157" sodipodi:nodetypes="cssssssssssssscccssscccsscsssssssc" class="st2" d="M859.1,521.2
			c-0.6,0.6,27.2,20.5,36.1,25.7c4.8,2.7,7.6,4.9,6.8,5.2c-0.8,0.3-2.8,0.9-4.4,1.4c-4.9,1.5-6,5-6,20c0,7.3-0.3,13.2-0.7,13.2
			c-1,0-9.8-11.7-16.2-19.8c-5.2-6.6-14.8-27.1-14.8-25c0,0.4,5.4,14,12.5,27c17.9,32.8,55.9,64.2,89.9,70.6c3,0.6-6.6-3.5-13-6.7
			c-1.6-0.8-0.2-1.2,7.2-0.7c5,0.3,10.8,0.7,13,1c6.9,0.8,7.2,0,4.7-11.2c-2.8-12.5-2.8-13.1-0.1-10.7l4.9,7l-3.6-11.3
			c-4.6-11.6-12.6-25.2-23-35.5c-11.4-11.4-23.8-18.2-40.7-23.8c-5.3-1.8-23.9-11.3-32.8-15.6C870.1,527.7,859.3,521.6,859.1,521.2z
			 M912.5,558.1c4.3-0.1,11.1,1.7,13.2,2.8c-1.4,5.4-1.9,11.5-1.9,18c0,21.9,8.4,39.8,18.8,39.8c7.1,0,13.4-8.5,16.5-21
			c0.4,0.7,0.9,1.5,1.3,2.2c0.7,1.2,5.2,10.4,6.2,16.2c0.6,3.2,0.3,4-2.8,7.1c-3.9,3.9-3.4,3.8-13.4,2c-23.8-4.3-41-15.2-48.9-30.9
			c-3-5.9-3.5-7.9-3.4-14c0-10.6,4.6-19,12-21.8C910.6,558.3,911.5,558.2,912.5,558.1z"/>
		
			<path id="path18261" sodipodi:cx="920.91559" sodipodi:cy="256.10843" sodipodi:rx="4.0675154" sodipodi:ry="12.127221" sodipodi:type="arc" class="st1" d="
			M939.8,589c0,6.9-2.6,12.6-5.8,12.6c-3.2,0-5.9-5.6-5.9-12.5c0,0,0,0,0-0.1c0-6.9,2.6-12.6,5.8-12.6
			C937.2,576.4,939.8,582,939.8,589C939.8,588.9,939.8,588.9,939.8,589z"/>
	</g>
</g>
</svg>
